# xmcd
#
# Track frame offsets: 
#        150
#        13793
#        28733
#        55035
#        84726
#        100175
#        107662
#
# Disc length: 1480 seconds
#
# Revision: 0
# Processed by: cddbd v1.5.2PL0 Copyright (c) Steve Scherf et al.
# Submitted via: ExactAudioCopy v0.95b3
#
DISCID=4f05c607
DTITLE=Dusty Springfield  - The Best Of Dusty - Volume Two  FLAC
DYEAR=1900
DGENRE=
TTITLE0=Son of A Preacher Man
TTITLE1=All I See Is You
TTITLE2=Quiet Please
TTITLE3=Put Your Hands Together
TTITLE4=Hollywood Movie Girls
TTITLE5=We Are Family
TTITLE6=I Only Want To Be With You
EXTD=
EXTT0=
EXTT1=
EXTT2=
EXTT3=
EXTT4=
EXTT5=
EXTT6=
PLAYORDER=
